Coordinates
version=1
nRows=17
nColumns=24
inDegrees=yes

Units are S.I. units (second, meters, Newtons, ...)
Angles are in degrees.

endheader
time	pelvis_tilt	pelvis_list	pelvis_rotation	pelvis_tx	pelvis_ty	pelvis_tz	hip_flexion_r	hip_adduction_r	hip_rotation_r	knee_angle_r	ankle_angle_r	subtalar_angle_r	mtp_angle_r	hip_flexion_l	hip_adduction_l	hip_rotation_l	knee_angle_l	ankle_angle_l	subtalar_angle_l	mtp_angle_l	lumbar_extension	lumbar_bending	lumbar_rotation
      1.86000000	     16.39263501	      1.12022496	     -4.94453313	      0.52722777	      0.95138831	      0.33130234	      5.16315646	     -5.94808541	     -1.06456061	    -69.17457008	     20.48877175	      6.85054155	     42.82263819	     -7.66626783	      7.47255487	     -5.65005781	    -19.74864339	     22.14366556	      5.11517432	     14.16789294	    -31.86678720	     -3.75249521	      9.71500579
      1.86500000	     16.54904836	      1.03739901	     -4.75253983	      0.53382967	      0.95231831	      0.33133767	      5.57333175	     -5.80158341	     -1.26784722	    -68.50492673	     20.75889717	      6.94363145	     42.81992237	     -8.62672870	      7.33546793	     -5.74107581	    -19.14489404	     22.31335448	      5.77842673	     14.05688334	    -31.98710055	     -3.56444761	      9.53931794
      1.87000000	     16.69478577	      0.97419480	     -4.56100356	      0.54038860	      0.95315215	      0.33125024	      5.98854787	     -5.70527161	     -1.50673187	    -67.78937883	     21.02081924	      7.04474925	     42.81648011	     -9.55276310	      7.22660094	     -5.81995482	    -18.54858597	     22.50788515	      6.39372267	     13.87662893	    -32.09401059	     -3.37537592	      9.38756681
      1.87500000	     16.79115811	      0.94172522	     -4.32882483	      0.54691337	      0.95383261	      0.33125942	      6.43504678	     -5.62261258	     -1.77784898	    -67.01846441	     21.28096271	      7.09852571	     42.76616301	    -10.38189494	      7.12127260	     -5.80322536	    -18.03141477	     22.68656227	      6.99796784	     13.67241136	    -32.13869332	     -3.21491075	      9.17928468
      1.88000000	     16.98449991	      0.89320628	     -4.07512505	      0.55356246	      0.95460479	      0.33100201	      6.70247406	     -5.57788120	     -2.11373891	    -66.11732788	     21.66317266	      7.34529851	     42.54144173	    -11.36257734	      7.03480131	     -5.67724754	    -17.43935996	     22.83129560	      7.46685325	     13.42368030	    -32.29226241	     -2.99633162	      8.97217092
      1.88500000	     17.07115856	      0.93666780	     -3.98723455	      0.56015130	      0.95501625	      0.33095811	      7.17992364	     -5.60788075	     -2.22911250	    -65.29869298	     21.95905211	      7.69146789	     42.46031791	    -12.20985268	      7.07187543	     -5.66187247	    -16.85961725	     22.99444254	      7.89419578	     13.30594083	    -32.32234636	     -2.94829754	      8.78623760
      1.89000000	     17.24749770	      0.94005110	     -3.89492909	      0.56666036	      0.95553359	      0.33101335	      7.49780757	     -5.59565387	     -2.38538605	    -64.36770036	     22.23233642	      7.76512387	     42.34548515	    -13.21937833	      7.07477173	     -5.56866805	    -16.14506221	     23.07770352	      8.20649852	     13.12634515	    -32.45412376	     -2.89343924	      8.65080523
      1.89500000	     17.41934624	      0.90382409	     -3.75432491	      0.57312221	      0.95597143	      0.33102446	      7.76524847	     -5.52505145	     -2.52366631	    -63.29890031	     22.55779156	      7.98081625	     42.21862686	    -14.19103811	      7.02549918	     -5.42951594	    -15.49178535	     23.21267446	      8.47988473	     12.93223957	    -32.59213708	     -2.76443063	      8.49329233
      1.90000000	     17.59589332	      0.83439367	     -3.58572471	      0.57966048	      0.95644053	      0.33093583	      7.99944600	     -5.43613766	     -2.73672172	    -62.20044122	     22.67995795	      8.07034034	     42.15494791	    -15.17526940	      6.93619931	     -5.25409740	    -14.82685916	     23.23778192	      8.69617054	     12.75678101	    -32.72853449	     -2.56833076	      8.40298243
      1.90500000	     17.80476472	      0.82284722	     -3.39710405	      0.58616374	      0.95676388	      0.33085726	      8.19914782	     -5.42295459	     -2.97032602	    -61.11476736	     22.85841758	      8.32866705	     42.04354894	    -16.19871702	      6.90569331	     -5.00309023	    -14.16220334	     23.33293909	      8.85037386	     12.55954634	    -32.90389498	     -2.43013851	      8.20415228
      1.91000000	     18.01505249	      0.81288167	     -3.14789584	      0.59277655	      0.95700334	      0.33067836	      8.30566326	     -5.38947158	     -3.24133287	    -59.90530198	     23.03129025	      8.32420740	     41.37404957	    -17.22821484	      6.86117810	     -4.78166940	    -13.50633367	     23.48513194	      9.08506146	     11.54091835	    -33.06853511	     -2.27727326	      7.94925109
      1.91500000	     18.10880553	      0.76056638	     -2.91356187	      0.59925040	      0.95706135	      0.33043983	      8.55352097	     -5.30108779	     -3.50614386	    -58.64701233	     23.06374153	      8.24201696	     41.34173922	    -18.09628040	      6.78284509	     -4.40636149	    -12.89848792	     23.53471721	      9.05112213	     11.52338580	    -33.12278889	     -2.08368365	      7.78271462
      1.92000000	     18.10198161	      0.78211677	     -2.86589407	      0.60537649	      0.95680088	      0.33053811	      8.96347907	     -5.29344822	     -3.54034844	    -57.38326837	     23.17897587	      8.64608405	     41.20698281	    -18.82008928	      6.81447574	     -4.17047073	    -12.25376577	     23.65653919	      9.00301408	     11.42414422	    -33.10530692	     -2.03412294	      7.76108725
      1.92500000	     18.15400317	      0.74715777	     -2.72793379	      0.61168190	      0.95654412	      0.33041572	      9.26480511	     -5.23945250	     -3.75715981	    -56.05868156	     23.15771788	      8.52242097	     41.11447845	    -19.58275889	      6.77334749	     -3.99175698	    -11.74776808	     23.73887603	      9.13370679	     11.31836652	    -33.14605682	     -1.87891399	      7.70437143
      1.93000000	     18.34126898	      0.66240860	     -2.50946189	      0.61819244	      0.95649807	      0.33046033	      9.32176102	     -5.07848813	     -3.97299345	    -54.62513328	     23.02022936	      8.16735032	     41.07254055	    -20.49226716	      6.62499913	     -3.89538428	    -11.24371383	     23.86045096	      9.31897811	     11.13867872	    -33.29889740	     -1.68733829	      7.58805608
      1.93500000	     18.42473129	      0.59614899	     -2.31873819	      0.62454200	      0.95617696	      0.33042227	      9.48631559	     -4.96131890	     -4.16145015	    -53.15758359	     22.95189770	      8.10262428	     41.11393891	    -21.23391539	      6.50626417	     -3.77010920	    -10.82441357	     24.12000317	      9.42354248	     11.00994547	    -33.36011348	     -1.50816907	      7.45666258
      1.94000000	     18.52255490	      0.54963226	     -2.17550794	      0.63083552	      0.95575868	      0.33050680	      9.63474996	     -4.84424734	     -4.29952374	    -51.65551106	     22.90584123	      7.90940530	     41.12301691	    -21.96989359	      6.41434382	     -3.65542132	    -10.45417084	     24.29940642	      9.59868450	     10.84121530	    -33.44697841	     -1.35960961	      7.35897194
